<?xml version="1.0" encoding="UTF-8"?>
<svg id="FILE-INFO" xmlns="http://www.w3.org/2000/svg" viewBox="0 0 263.7 251.26">
  <defs>
    <style>
      .cls-1 {
        stroke-width: 2.61px;
      }

      .cls-1, .cls-2, .cls-3 {
        stroke: #fff;
      }

      .cls-1, .cls-2, .cls-3, .cls-4 {
        fill: #00b4c0;
      }

      .cls-1, .cls-3 {
        stroke-miterlimit: 10;
      }

      .cls-5 {
        fill: #fff;
      }

      .cls-2 {
        stroke-miterlimit: 1;
        stroke-width: .97px;
      }

      .cls-3 {
        stroke-width: .75px;
      }
    </style>
  </defs>
  <g>
    <path class="cls-4" d="M120.38,208.27c0,.57.36.85,1.08.85h5.84l-1.19,1.56h-5.72c-1.32-.14-2.06-.65-2.22-1.53v-5.61h2.22v4.73Z"/>
    <path class="cls-4" d="M127.97,210.68l3.86-7.14h3.53l3.87,7.14h-2.62l-3.01-5.58-2.19,4.03h3.92l-1.22,1.56h-6.14Z"/>
    <path class="cls-4" d="M140.25,203.54h8.37c1.32.18,2.06.7,2.23,1.55v1.01c0,.19-.04.35-.1.5-.07.14-.17.3-.3.47.09.09.18.21.27.34s.13.28.13.44v1.27c-.16.86-.9,1.38-2.23,1.56h-8.37v-7.14ZM145.04,206.35h2.44c.42,0,.71-.04.88-.13.17-.09.25-.23.25-.45,0-.31-.09-.49-.27-.57-.18-.07-.47-.11-.86-.11h-4.99v4.03h4.99c.39,0,.68-.03.86-.1.18-.06.27-.23.27-.5v-.08c0-.37-.36-.55-1.08-.55h-3.72l1.22-1.56Z"/>
    <path class="cls-4" d="M152.21,205.1c.16-.86.9-1.38,2.22-1.55h6.14c1.32.18,2.06.7,2.22,1.55v4.05c-.16.88-.9,1.39-2.22,1.53h-6.14c-1.32-.14-2.06-.65-2.22-1.53v-4.05ZM155.57,205.1c-.76,0-1.14.31-1.14.92v2.26c0,.57.36.85,1.08.85h3.99c.72,0,1.08-.28,1.08-.85v-2.26c0-.61-.38-.92-1.14-.92h-3.87Z"/>
    <path class="cls-4" d="M164.17,203.54h8.37c1.32.18,2.06.7,2.23,1.55v2.04c-.13.63-.53,1.07-1.19,1.31l1.18,2.23h-2.5l-1.16-2.01h-3.35l1.22-1.55h2.5c.72,0,1.08-.28,1.08-.85v-.24c0-.61-.38-.92-1.14-.92h-4.99v5.58h-2.24v-7.14Z"/>
    <path class="cls-4" d="M175.78,210.68l3.86-7.14h3.53l3.87,7.14h-2.62l-3.01-5.58-2.19,4.03h3.92l-1.22,1.56h-6.14Z"/>
    <path class="cls-4" d="M195.39,203.54v1.55h-3.77v5.58h-2.22v-5.58h-3.77v-1.55h9.76Z"/>
    <path class="cls-4" d="M196.76,205.1c.16-.86.9-1.38,2.23-1.55h6.14c1.32.18,2.06.7,2.23,1.55v4.05c-.16.88-.9,1.39-2.23,1.53h-6.14c-1.32-.14-2.06-.65-2.23-1.53v-4.05ZM200.12,205.1c-.76,0-1.14.31-1.14.92v2.26c0,.57.36.85,1.08.85h3.99c.72,0,1.08-.28,1.08-.85v-2.26c0-.61-.38-.92-1.14-.92h-3.87Z"/>
    <path class="cls-4" d="M210.95,203.54v7.14h-2.24v-7.14h2.24Z"/>
    <path class="cls-4" d="M212.32,203.54h8.37c1.32.18,2.06.7,2.22,1.55v2.04c-.13.63-.53,1.07-1.19,1.31l1.18,2.23h-2.5l-1.16-2.01h-3.35l1.22-1.55h2.5c.72,0,1.08-.28,1.08-.85v-.24c0-.61-.38-.92-1.14-.92h-4.99v5.58h-2.24v-7.14Z"/>
    <path class="cls-4" d="M227.27,206.36h6.83l-1.2,1.56h-6.39v.36c0,.57.36.85,1.08.85h6.54l-1.2,1.56h-6.41c-1.32-.14-2.06-.65-2.22-1.53v-4.05c.16-.86.9-1.38,2.22-1.55h7.6v1.55h-6.47c-.76,0-1.14.31-1.14.92v1.33l.77-.98Z"/>
  </g>
  <g>
    <path class="cls-4" d="M30.25,165.79h17.56v4.75h-1.6c-.93,0-1.55.08-1.85.23-.3.16-.52.4-.67.74s-.22.98-.22,1.93v18.98c0,1.03.06,1.7.18,1.99.12.3.33.51.62.64.36.2.9.3,1.63.3h1.91v4.75h-17.56v-4.75h1.42c1.02,0,1.68-.07,1.99-.21.31-.14.54-.36.68-.66s.22-.91.22-1.81v-19.06c0-1.07-.07-1.77-.22-2.1s-.39-.59-.74-.77c-.24-.13-.83-.2-1.76-.2h-1.6v-4.75Z"/>
    <path class="cls-4" d="M78.65,177.23l3.09,7.67-4.79.87c-1.6-1.82-3.41-3.16-5.43-4.01-2.03-.85-4.18-1.27-6.46-1.27-1.48,0-2.64.19-3.49.57-.85.38-1.27.81-1.27,1.28,0,.54.39,1.03,1.16,1.49.75.46,2.14.87,4.17,1.23l6.9,1.28c3.83.7,6.55,1.63,8.18,2.79,1.61,1.17,2.42,2.53,2.42,4.08,0,1.98-1.24,3.65-3.71,5.02-2.76,1.51-6.2,2.26-10.3,2.26-1.9,0-3.66-.16-5.25-.47-1.6-.31-3.26-.83-4.99-1.57l-1.13,1.64h-3.83l-2.55-8.87,4.81-.74c1.13,1.8,2.9,3.31,5.29,4.52,2.39,1.21,5.02,1.81,7.89,1.81,1.29,0,2.36-.1,3.2-.31.85-.21,1.49-.5,1.92-.87.43-.37.64-.75.64-1.15,0-.66-.5-1.22-1.49-1.69-1.01-.47-2.78-.93-5.3-1.39l-6-1.12c-.91-.16-2.14-.47-3.69-.93-1.55-.45-2.74-.93-3.58-1.42-.83-.49-1.52-1.12-2.07-1.89-.55-.77-.82-1.58-.82-2.43,0-1.21.53-2.33,1.58-3.35,1.06-1.02,2.64-1.85,4.76-2.48,2.12-.63,4.46-.95,7.04-.95,3.11,0,5.91.51,8.42,1.54l1-1.15h3.68Z"/>
    <path class="cls-4" d="M86.5,164.42h17.55v4.94h-1.54c-.86,0-1.4.04-1.62.13-.41.17-.71.43-.9.78-.19.35-.28.91-.28,1.68v20.38c0,.82.04,1.32.12,1.51.08.19.24.34.48.45s.7.17,1.39.17c2.3,0,4.15-.3,5.55-.9,1.4-.6,2.66-1.56,3.78-2.88,1.12-1.32,2.09-3.12,2.9-5.38l4.74,1.61-4.74,13.2h-27.41v-4.94h1.72c.7,0,1.24-.09,1.6-.28s.62-.44.79-.75c.16-.31.24-.87.24-1.65v-20.2c0-.85-.08-1.47-.24-1.84-.16-.37-.4-.65-.7-.82-.3-.17-.8-.26-1.51-.26h-1.9v-4.94Z"/>
    <path class="cls-4" d="M133.14,165.79h8.06l10.78,26.49c.58,1.41,1.1,2.28,1.56,2.61.45.33,1.29.48,2.51.47v4.75h-16.99v-4.75l1.03-.02c.94,0,1.6-.12,1.98-.36.38-.24.57-.53.57-.87,0-.3-.16-.9-.49-1.82l-1.06-3.12h-10.94l-1.34,3.47c-.27.74-.41,1.22-.41,1.45,0,.26.1.5.3.71.2.21.52.37.97.47.29.07,1.1.1,2.42.1v4.75h-13.9v-4.75c.89,0,1.54-.07,1.96-.22.41-.15.75-.37,1.02-.66s.56-.84.89-1.65l11.09-27.03ZM132.03,184.26h7.18l-3.5-9.44-3.68,9.44Z"/>
    <path class="cls-4" d="M158.11,177.23h14.59l10.53,13.35v-8.16c0-.7-.06-1.14-.18-1.31-.17-.26-.4-.44-.69-.55-.29-.1-.86-.16-1.7-.16h-1.75v-3.16h14.83v3.16h-1.65c-.82,0-1.41.06-1.76.18-.35.12-.6.28-.73.49-.14.21-.21.66-.21,1.34v17.69h-7.39l-13.33-16.85v11.79c0,.68.06,1.11.19,1.29.13.19.36.33.69.44.33.11.91.16,1.74.16h1.72v3.16h-14.9v-3.16h1.54c.86,0,1.45-.05,1.76-.14s.57-.25.76-.48c.19-.23.28-.57.28-1.03v-13.12c0-.5-.09-.87-.26-1.11-.17-.23-.4-.4-.7-.51-.29-.1-.78-.16-1.47-.16h-1.93v-3.16Z"/>
    <path class="cls-4" d="M197.05,165.79h18.81c4.27,0,7.67.65,10.19,1.94,2.52,1.29,4.53,3.21,6.04,5.75,1.5,2.54,2.25,5.59,2.25,9.15,0,2.48-.38,4.69-1.15,6.64-.76,1.95-1.9,3.71-3.41,5.27-1.51,1.57-3.13,2.74-4.86,3.53-1.3.59-3.15,1.07-5.55,1.45-2.39.38-4.31.57-5.75.57h-16.58v-4.75h1.24c1.05,0,1.73-.08,2.06-.25.33-.16.59-.44.8-.84.14-.31.21-.99.21-2.04v-18.74c0-1.05-.07-1.73-.22-2.03-.15-.3-.39-.53-.72-.69-.33-.16-1.04-.23-2.12-.23h-1.24v-4.75ZM210.18,171.3v21.32c0,.72.04,1.16.13,1.33.14.25.34.41.6.5s.9.14,1.92.14c2.81,0,5.01-.41,6.6-1.24,1.59-.83,2.87-2.16,3.85-3.98.98-1.83,1.47-4,1.47-6.53s-.46-4.66-1.38-6.5c-.92-1.84-2.06-3.14-3.41-3.9-1.36-.75-3.29-1.13-5.82-1.13h-3.96Z"/>
  </g>
  <g>
    <g>
      <path class="cls-3" d="M105.94,32.1h56.58v14.43h-5.16c-3,0-4.98.28-5.95.84-.97.56-1.69,1.44-2.16,2.65-.47,1.21-.71,3.52-.71,6.94v74.64c0,3.71.19,6.1.58,7.16.39,1.06,1.05,1.83,2,2.3,1.16.71,2.91,1.06,5.24,1.06h6.16v13.85h-56.58v-13.85h4.58c3.27,0,5.41-.25,6.41-.75,1-.5,1.73-1.3,2.2-2.39.47-1.09.71-3.25.71-6.5V57.58c0-3.83-.24-6.35-.71-7.56-.47-1.21-1.26-2.13-2.37-2.78-.78-.47-2.66-.71-5.66-.71h-5.16v-14.43Z"/>
      <path class="cls-1" d="M115.43,51.83s-15.82,6.16-15.82,17.17,13.82,19.23,29.78,24.09c15.96,4.86,60.92,14.46,60.92,38.27,0,21.95-34.15,31.26-59.21,31.26-22.68,0-55.85-8.91-55.85-32.56,0-26.24,41.27-27.21,41.27-27.21v-6.13s-13.09.08-27.73,4.07c-16.39,4.46-29.49,15.66-29.49,28.79,0,29.23,36.87,42.27,70.26,42.27,50.95,0,75.73-19.65,75.73-40.23,0-28.75-43.95-39.56-60.61-45.6-9.08-3.29-31.77-9.15-30.51-25.43.17-2.25.47-6.08,1.26-8.75Z"/>
      <g>
        <path class="cls-4" d="M104.65,134.27c.02-.1,1.84-9.69,12.51-9.69,1.44,0,3,.18,4.63.53,4.52.98,9.17,1.5,13.46,1.5h0c6.29,0,11.89-1.12,16.17-3.22,2.17-1.07,3.57-2.63,4.27-4.77,1.91-5.8-2.07-13.64-2.11-13.72l-1.15-2.24,2.49.35c.18.02,17.55,2.6,17.55,15.98,0,9.45-15.79,16.51-29.91,16.51-2.77,0-5.45-.26-7.94-.78-5.09-1.06-9.04-2.03-12.22-2.81-3.13-.77-5.6-1.37-7.59-1.67-.22-.03-.44-.05-.65-.05-3.85,0-7.1,4.95-7.13,5l-3.51,5.42,1.13-6.36Z"/>
        <path class="cls-5" d="M154.75,104.31s16.42,2.28,16.42,14.68c0,8.28-14.57,15.21-28.6,15.21-2.61,0-5.2-.24-7.67-.75-10.18-2.12-15.8-3.87-19.88-4.49-.28-.04-.57-.06-.84-.06-4.63,0-8.23,5.6-8.23,5.6,0,0,1.53-8.61,11.23-8.61,1.3,0,2.74.15,4.35.5,4.45.97,9.15,1.53,13.74,1.53,6.07,0,11.94-.99,16.75-3.36,10.54-5.19,2.75-20.26,2.75-20.26M150.11,101.02l2.32,4.48c1.05,2.06,3.47,8.35,2.03,12.71-.59,1.79-1.77,3.1-3.61,4-4.11,2.02-9.5,3.09-15.6,3.09-4.19,0-8.75-.51-13.18-1.47-1.72-.37-3.37-.56-4.9-.56-9.4,0-13.14,7.04-13.8,10.77l-2.28,12.81,7.04-10.94c.74-1.14,3.45-4.4,6.04-4.4.15,0,.31.01.45.03,1.93.29,4.38.89,7.47,1.65,3.19.78,7.16,1.75,12.26,2.81,2.58.54,5.34.81,8.2.81,7.26,0,14.82-1.74,20.76-4.79,6.75-3.46,10.46-8.09,10.46-13.03,0-11.61-12.21-16.37-18.67-17.27l-5-.7h0Z"/>
      </g>
    </g>
    <path class="cls-2" d="M172.29,58.98s0-.05,0-.07c-.05-.6-.42-1.11-1-1.56-1.1-.86-2.2-1.71-3.31-2.56-.25-.19-.49-.38-.74-.57-1.32-.99-2.58-1.7-4.32-1.56-.64.05-1.86-.62-2.5-.98-3.3-1.88-6.57-1.87-9.5-1.87v6.07c3.75-.13,6.24-.17,7.81,3.46,0,0,0,0,0,0,.83,1.6,2.9,1.9,4.81,1.89.68,0,4.94-.16,6.37-.23,1.03-.05,1.92-.37,2.26-1.32.09-.25.12-.49.11-.72Z"/>
  </g>
</svg>