<svg clip-rule="evenodd" fill-rule="evenodd" height="512" image-rendering="optimizeQuality" shape-rendering="geometricPrecision" text-rendering="geometricPrecision" viewBox="0 0 1707 1707" width="512" xmlns="http://www.w3.org/2000/svg"><g id="Layer_x0020_1"><path d="m853 1707c-470 0-853-383-853-854 0-470 383-853 853-853 471 0 854 383 854 853 0 471-383 854-854 854zm184-332h-368c-11 0-20-8-20-20v-106c0-11 9-20 20-20h47v-441h-47c-11 0-20-8-20-20v-106c0-11 9-20 20-20h368c11 0 20 9 20 20v106c0 12-9 20-20 20h-46v441h46c11 0 20 9 20 20v106c0 12-9 20-20 20zm-184-769c-75 0-137-62-137-137 0-76 62-138 137-138 76 0 138 62 138 138 0 75-62 137-138 137zm0 967c-11 0-20-9-20-20s9-20 20-20c375 0 680-305 680-680 0-11 9-20 20-20s20 9 20 20c0 397-323 720-720 720zm-700-700c-11 0-20-9-20-20 0-397 323-720 720-720 11 0 20 9 20 20s-9 20-20 20c-375 0-680 305-680 680 0 11-9 20-20 20z"/></g></svg>