<svg height="512" viewBox="0 0 512 512" width="512" xmlns="http://www.w3.org/2000/svg"><g id="Layer_2" data-name="Layer 2"><g id="InterfaceIcon"><g id="_10.Calender" data-name="10.Calender"><rect id="Background" fill="#41a5ee" height="512" rx="131.96" transform="matrix(0 1 -1 0 512 0)" width="512"/><path d="m512 272.36v107.64a132 132 0 0 1 -132 132h-144l-118.47-118.51 2.47-22.79v-160l30-68.37 14.89 14.89-.25-7 18.79-40.22 39.92 39.92 91.79-7.55 15.7 15.7 17.76-48.07 45.5 44.5z" opacity=".25"/><g id="_10.Calender-2" fill="#fff" data-name="10.Calender"><path d="m365 142.33h-3v7.61a23.44 23.44 0 0 1 -46.88 0v-7.61h-118.27v7.61a23.44 23.44 0 1 1 -46.87 0v-7.61h-3a41 41 0 0 0 -41 41v181.67a41 41 0 0 0 41 41h218.02a41 41 0 0 0 41-41v-181.66a41 41 0 0 0 -41-41.01zm17.58 208a32.23 32.23 0 0 1 -32.23 32.22h-188.69a32.22 32.22 0 0 1 -32.22-32.22v-111.33a32.22 32.22 0 0 1 32.22-32.23h188.67a32.23 32.23 0 0 1 32.23 32.23z"/><rect height="29.3" rx="14.65" transform="matrix(0 -1 1 0 203.28 473.87)" width="58.59" x="309.28" y="120.65"/><rect height="29.3" rx="14.65" transform="matrix(0 -1 1 0 38.12 308.71)" width="58.59" x="144.12" y="120.65"/><rect height="49.8" rx="11.72" width="49.8" x="154.92" y="231.68"/><rect height="49.8" rx="11.72" width="49.8" x="231.1" y="231.68"/><rect height="49.8" rx="11.72" width="49.8" x="307.27" y="231.68"/><rect height="49.8" rx="11.72" width="49.8" x="154.92" y="307.86"/><rect height="49.8" rx="11.72" width="49.8" x="231.1" y="307.86"/><rect height="49.8" rx="11.72" width="49.8" x="307.27" y="307.86"/></g></g></g></g></svg>