<svg id="icons" height="512" viewBox="0 0 64 64" width="512" xmlns="http://www.w3.org/2000/svg"><path d="m41 21h10v7h-10z" fill="#94c1ff"/><path d="m44 32h4l3 3h-10z" fill="#94c1ff"/><path d="m51 28-3 4h-4l-3-4z" fill="#5c9eff"/><path d="m41 18h10v3h-10z" fill="#fff"/><path d="m36 50a3.9989 3.9989 0 0 0 -4 4v-40a3.9989 3.9989 0 0 1 4-4h24v40zm20.01-11v-25h-19.99v25z" fill="#fff"/><path d="m63 14v40h-31a3.9989 3.9989 0 0 1 4-4h24v-36z" fill="#94c1ff"/><path d="m56.01 14v25h-19.99v-25zm-5.01 14v-10h-10v10l3 4-3 3h10l-3-3z" fill="#d7e9ff"/><path d="m4.02 50h23.98a3.9989 3.9989 0 0 1 4 4h-31v-40h3.02z" fill="#94c1ff"/><path d="m23 24v2h-10v-2a2.00588 2.00588 0 0 1 2-2h6a2.00588 2.00588 0 0 1 2 2z" fill="#94c1ff"/><path d="m21.01 18-1.01 4h-3.99l-1.01-4z" fill="#5c9eff"/><path d="m13 26h10v5h-10z" fill="#fff"/><path d="m21.01 18h-6.01l1.01 4h-1.01a2.00588 2.00588 0 0 0 -2 2v9a2.00588 2.00588 0 0 0 2 2h6a2.00588 2.00588 0 0 0 2-2v-9a2.00588 2.00588 0 0 0 -2-2h-1zm7-4v25h-19.99v-25z" fill="#d7e9ff"/><path d="m23 33a2.00588 2.00588 0 0 1 -2 2h-6a2.00588 2.00588 0 0 1 -2-2v-2h10z" fill="#94c1ff"/><path d="m32 14v40a3.9989 3.9989 0 0 0 -4-4h-23.98v-40h23.98a3.9989 3.9989 0 0 1 4 4zm-3.99 25v-25h-19.99v25z" fill="#fff"/><g fill="#116fff"><path d="m62.99805 55.00391h-61.9961a.99943.99943 0 0 1 -1-1v-40.00586a.99942.99942 0 0 1 1-1h2.99905a1 1 0 0 1 0 2h-1.999v38.00586h59.9961v-38.00586h-1.9991a1 1 0 0 1 0-2h2.999a.99942.99942 0 0 1 1 1v40.00586a.99943.99943 0 0 1 -.99995 1z"/><path d="m32.002 14.99805a.99943.99943 0 0 1 -1-1 5.00693 5.00693 0 0 1 5-5.002 1 1 0 0 1 0 2 3.00433 3.00433 0 0 0 -3 3.002.99942.99942 0 0 1 -1 1z"/><path d="m59.999 10.99609h-23.997a1 1 0 0 1 0-2h23.997a1 1 0 0 1 0 2z"/><path d="m32.002 55.00391a.99943.99943 0 0 1 -1-1 5.00589 5.00589 0 0 1 5-5 1 1 0 0 1 0 2 3.00328 3.00328 0 0 0 -3 3 .99942.99942 0 0 1 -1 1z"/><path d="m59.999 51.00391h-23.997a1 1 0 0 1 0-2h23.997a1 1 0 0 1 0 2z"/><path d="m59.999 51.00391a.99943.99943 0 0 1 -1-1v-40.00782a1 1 0 1 1 2 0v40.00782a.99942.99942 0 0 1 -1 1z"/><path d="m32.002 14.99805a.99943.99943 0 0 1 -1-1 3.00432 3.00432 0 0 0 -3-3.002 1 1 0 0 1 0-2 5.00693 5.00693 0 0 1 5 5.002.99942.99942 0 0 1 -1 1z"/><path d="m28.002 10.99609h-23.98637a1 1 0 0 1 0-2h23.98637a1 1 0 0 1 0 2z"/><path d="m32.002 55.00391a.99943.99943 0 0 1 -1-1 3.00328 3.00328 0 0 0 -3-3 1 1 0 0 1 0-2 5.00588 5.00588 0 0 1 5 5 .99942.99942 0 0 1 -1 1z"/><path d="m28.002 51.00391h-24.001a1 1 0 1 1 0-2h24.001a1 1 0 0 1 0 2z"/><path d="m4.01563 51.00391a.99942.99942 0 0 1 -1-1v-40.00782a1 1 0 0 1 2 0v40.00782a.99943.99943 0 0 1 -1 1z"/><path d="m32.002 55.00391a.99943.99943 0 0 1 -1-1v-40.00586a1 1 0 0 1 2 0v40.00586a.99942.99942 0 0 1 -1 1z"/><path d="m28.01465 40h-19.99805a.99943.99943 0 0 1 -1-1v-25.00195a.99942.99942 0 0 1 1-1h19.99805a.99942.99942 0 0 1 1 1v25.00195a.99943.99943 0 0 1 -1 1zm-18.99805-2h17.99805v-23.00195h-17.99805z"/><path d="m56.01465 40h-19.99805a.99943.99943 0 0 1 -1-1v-25.00195a.99942.99942 0 0 1 1-1h19.99805a.99942.99942 0 0 1 1 1v25.00195a.99943.99943 0 0 1 -1 1zm-18.99805-2h17.99805v-23.00195h-17.99805z"/><path d="m16.01465 44.00391h-7.99805a1 1 0 0 1 0-2h7.998a1 1 0 0 1 0 2z"/><path d="m28 44.00781h-1.9834a1 1 0 0 1 0-2h1.9834a1 1 0 1 1 0 2z"/><path d="m28 47.00977h-1.9834a1 1 0 1 1 0-2h1.9834a1 1 0 0 1 0 2z"/><path d="m28.001 47.00977a.99725.99725 0 0 1 -.835-.44922l-1.9834-3.002a.99944.99944 0 0 1 1.668-1.10156l1.9834 3.00201a1.00023 1.00023 0 0 1 -.833 1.55079z"/><path d="m11.01563 47.00391h-3.01563a1 1 0 0 1 0-2h3.01563a1 1 0 1 1 0 2z"/><path d="m23 46.00391h-2a1 1 0 1 1 0-2h2a1 1 0 0 1 0 2z"/><path d="m44.03027 44.00391h-7.998a1 1 0 0 1 0-2h7.998a1 1 0 0 1 0 2z"/><path d="m56.01563 44.00781h-1.9834a1 1 0 0 1 0-2h1.9834a1 1 0 0 1 0 2z"/><path d="m56.01563 47.00977h-1.9834a1 1 0 0 1 0-2h1.9834a1 1 0 0 1 0 2z"/><path d="m56.0166 47.00977a.99725.99725 0 0 1 -.835-.44922l-1.9834-3.002a.99944.99944 0 0 1 1.668-1.10156l1.9834 3.00195a1.00023 1.00023 0 0 1 -.833 1.55079z"/><path d="m39.03125 47.00391h-3.01562a1 1 0 0 1 0-2h3.01562a1 1 0 0 1 0 2z"/><path d="m51.01563 46.00391h-2a1 1 0 0 1 0-2h2a1 1 0 0 1 0 2z"/><path d="m21 36h-6a3.00328 3.00328 0 0 1 -3-3v-9a3.00328 3.00328 0 0 1 3-3h6a3.00328 3.00328 0 0 1 3 3v9a3.00328 3.00328 0 0 1 -3 3zm-6-13a1.00067 1.00067 0 0 0 -1 1v9a1.00067 1.00067 0 0 0 1 1h6a1.00067 1.00067 0 0 0 1-1v-9a1.00067 1.00067 0 0 0 -1-1z"/><path d="m16.00781 23a.99958.99958 0 0 1 -.96875-.75586l-1.00879-4a1 1 0 1 1 1.93946-.48828l1.00879 4a1 1 0 0 1 -.97071 1.24414z"/><path d="m20 23a1 1 0 0 1 -.9707-1.24414l1.00879-4a1 1 0 1 1 1.93945.48828l-1.00879 4a.99958.99958 0 0 1 -.96875.75586z"/><path d="m22 19h-8a1 1 0 0 1 0-2h8a1 1 0 0 1 0 2z"/><path d="m23 27h-10a1 1 0 0 1 0-2h10a1 1 0 0 1 0 2z"/><path d="m23 32h-10a1 1 0 0 1 0-2h10a1 1 0 0 1 0 2z"/><path d="m51 29h-10a.99943.99943 0 0 1 -1-1v-10a.99943.99943 0 0 1 1-1h10a.99943.99943 0 0 1 1 1v10a.99943.99943 0 0 1 -1 1zm-9-2h8v-8h-8z"/><path d="m48 33h-4a.99947.99947 0 0 1 -.7998-.40039l-3-4a.99955.99955 0 0 1 .7998-1.59961h10a.99955.99955 0 0 1 .7998 1.59961l-3 4a.99947.99947 0 0 1 -.7998.40039zm-3.5-2h3l1.5-2h-6z"/><path d="m51 36h-10a.99991.99991 0 0 1 -.707-1.707l3-3a.99928.99928 0 0 1 .707-.293h4a.99927.99927 0 0 1 .707.293l3 3a.99991.99991 0 0 1 -.707 1.707zm-7.58594-2h5.17188l-1-1h-3.17188z"/><path d="m51 22h-10a1 1 0 0 1 0-2h10a1 1 0 0 1 0 2z"/></g></svg>