<svg id="Layer_1" enable-background="new 0 0 512 512" height="512" viewBox="0 0 512 512" width="512" xmlns="http://www.w3.org/2000/svg" xmlns:xlink="http://www.w3.org/1999/xlink"><linearGradient id="SVGID_1_" gradientUnits="userSpaceOnUse" x1="256" x2="256" y1="2" y2="510"><stop offset="0" stop-color="#41ade2"/><stop offset=".0691" stop-color="#3d99c8"/><stop offset=".2159" stop-color="#327aa6"/><stop offset=".8311" stop-color="#0c456b"/><stop offset="1" stop-color="#09436a"/></linearGradient><linearGradient id="SVGID_2_" gradientUnits="userSpaceOnUse" x1="58.648" x2="453.352" y1="256" y2="256"><stop offset="0" stop-color="#fff"/><stop offset="1"/></linearGradient><path d="m223 33.3h-41.2c-1.1 0-2 .9-2 2v34c0 1.1.9 2 2 2h148.3c1.1 0 2-.9 2-2v-34c0-.5-.2-1-.6-1.4-.3-.4-.9-.6-1.4-.6h-41.1c-2.2 0-4-1.7-4.1-3.9-1.3-24.5-30.9-36.4-48.8-19.5-5.2 4.9-8.5 11.7-9 19.2 0 2.4-1.8 4.2-4.1 4.2zm116.4 40.2c-1.6 3.6-5.2 6-9.3 6h-148.2c-4.1 0-7.7-2.4-9.3-6h-84.8v406.6h336.4v-406.6zm1-29.8v21.6h87.9c2.3 0 4.1 1.8 4.1 4.1v414.9c0 2.3-1.9 4.1-4.1 4.1h-344.6c-2.3 0-4.1-1.8-4.1-4.1v-414.9c0-2.3 1.8-4.1 4.1-4.1h87.9v-21.6h-112.5v466.3h393.7v-466.3zm-77-19.8c-6.7-6.7-18.1-1.9-18.1 7.5s11.5 14.2 18.1 7.5c4.2-4.1 4.2-10.8 0-15zm-7.5-11.4c16.8 0 25.2 20.4 13.4 32.2s-32.2 3.4-32.2-13.4c0-10.3 8.4-18.8 18.8-18.8zm23.3 389.8h-46.5v46.5h46.5zm98.1 0h-46.5v46.5h46.5zm-196.1 0h-46.5v46.5h46.5zm70.7-106.1c0-5.4 8.2-5.4 8.2 0v63.8h92.7c2.2 0 4.1 1.8 4.1 4.2v29.8h24.5c2.3 0 4.1 1.8 4.1 4.1v54.7c0 2.3-1.9 4.1-4.1 4.1h-54.7c-2.3 0-4.1-1.8-4.1-4.1v-54.7c0-2.3 1.8-4.1 4.1-4.1h21.9v-25.8h-88.5v25.8h23.2c2.3 0 4.1 1.8 4.1 4.1v54.7c0 2.3-1.8 4.1-4.1 4.1h-54.7c-2.3 0-4.1-1.8-4.1-4.1v-54.7c0-2.3 1.9-4.1 4.1-4.1h23.2v-25.8h-88.6v25.8h21.9c2.3 0 4.1 1.8 4.1 4.1v54.7c0 2.3-1.8 4.1-4.1 4.1h-54.7c-2.3 0-4.1-1.8-4.1-4.1v-54.7c0-2.3 1.8-4.1 4.1-4.1h24.5v-30c0-2.3 1.8-4.1 4.1-4.1h92.7v-63.7zm-29.7-136.6h-66.3c-10.1 0-18.3 8.2-18.3 18.3v63.4c0 10.1 8.2 18.3 18.3 18.3h66.3c3.4 0 6.2-2.7 6.2-6.2v-87.7c-.1-3.3-2.8-6.1-6.2-6.1zm133.6 32c-2.2-3.5-4.9-6.5-8.1-8.9v53.9c13.9-10.7 17.4-30.2 8.1-45zm-180.5 76.3-7.5 59.3c-.4 3.1 1.3 4.1 3.7 4.5 2.7.3 6.5.1 9.6.2 9.7 0 11.9-3.8 11.9-9.7 0-3-.4-6.7-.9-10.8-1.5-12.6-3.4-28.2 5.5-43.4h-22.3zm208.9-54.2c-5.4 0-5.4-8.3 0-8.3h15c5.4 0 5.4 8.3 0 8.3zm-14.5 36.4c-1.9-1.3-2.4-3.9-1-5.7s3.9-2.3 5.8-1l12.9 9c1.9 1.3 2.4 3.9 1 5.7-1.3 1.9-3.9 2.4-5.8 1zm4.7-74.8c-1.9 1.3-4.5.9-5.8-1s-.8-4.5 1-5.8l15.5-10.7c1.9-1.3 4.5-.9 5.8 1s.8 4.5-1 5.8zm-54.3 118.3v-167.9l-83.5 44.7v78.4zm13.8-181.8c-3 0-5.5 2.5-5.5 5.5v184.6c0 4.8 5.9 7.4 9.4 3.9 1-1 1.6-2.4 1.6-3.9v-184.6c0-3-2.5-5.5-5.5-5.5zm-134.8 181.5h10.5l2.6-25.4h-4.7c-6.3 8.2-8.2 17-8.4 25.4zm21.3-25.4-3 29.9c-.2 2.1-2 3.7-4.1 3.7h-14c1.4 18.6 8.5 38.6-18.3 38.5-3.5 0-7.2.2-10.6-.2-7.1-.9-12.1-3.9-10.9-13.7l7.4-58.2h-11.1c-14.6 0-26.6-12-26.6-26.6v-63.4c0-14.6 12-26.6 26.6-26.6h66.3c6.4 0 11.9 4.2 13.7 10.1l84.2-45.1c.9-11.6 15.1-17.2 23.5-8.8 2.5 2.5 4.1 6 4.1 9.8v55.6c28.7 16 28.7 57.4 0 73.5v55.6c0 12.2-14.8 18.5-23.5 9.8-2.3-2.3-3.8-5.4-4-8.8l-84.2-45.1c-1.9 5.9-7.4 10.1-13.7 10.1h-1.8z" fill="url(#SVGID_1_)" stroke="url(#SVGID_2_)" stroke-miterlimit="10"/></svg>