<svg height="512" viewBox="0 0 512 512" width="512" xmlns="http://www.w3.org/2000/svg"><g id="Layer_1" data-name="Layer 1"><path d="m253 391.503h6v39.381h-6z" fill="#ffd9b3"/><path d="m256 391.503h3v39.381h-3z" fill="#fb9"/><path d="m493.849 394.369h-475.698c-4.423 0-8.008-4.14-8.008-9.247v-300.887c0-5.107 3.585-9.247 8.008-9.247h475.7c4.423 0 8.008 4.14 8.008 9.247v300.887c-.002 5.107-3.587 9.247-8.01 9.247z" fill="#6cf"/><path d="m501.857 84.235v300.887c0 5.107-3.585 9.247-8.008 9.247h-237.849v-319.381h237.849c4.423 0 8.008 4.14 8.008 9.247z" fill="#4da6ff"/><path d="m27.44 374.4v-279.439h457.12v279.439z" fill="#f3f5f9"/><path d="m484.56 94.961v279.439h-228.56v-279.439z" fill="#e1e6f0"/><g fill="#ffdf40"><path d="m415.663 141.727a37.414 37.414 0 1 1 -37.414-37.414 37.414 37.414 0 0 1 37.414 37.414z"/><path d="m293.414 327.189a37.414 37.414 0 1 1 -37.414-37.414 37.414 37.414 0 0 1 37.414 37.414z"/><path d="m172.88 141.727a37.415 37.415 0 1 1 -37.415-37.414 37.414 37.414 0 0 1 37.415 37.414z"/></g><path d="m340.835 74.988h-167.955v-21.809h167.955z" fill="#68544f"/><path d="m340.835 53.179v21.809h-84.835v-21.809z" fill="#53433f"/><path d="m271.429 443.393a15.429 15.429 0 1 1 -15.429-15.429 15.428 15.428 0 0 1 15.429 15.429z" fill="#68544f"/><path d="m271.428 443.393a15.428 15.428 0 0 1 -15.428 15.428v-30.857a15.428 15.428 0 0 1 15.428 15.429z" fill="#53433f"/><path d="m293.414 327.189a37.414 37.414 0 0 1 -37.414 37.411v-74.825a37.414 37.414 0 0 1 37.414 37.414z" fill="#ffbe40"/><path d="m415.663 141.727a37.414 37.414 0 0 1 -37.414 37.414v-74.828a37.414 37.414 0 0 1 37.414 37.414z" fill="#ffbe40"/><path d="m172.88 141.727a37.414 37.414 0 0 1 -37.415 37.414v-74.828a37.414 37.414 0 0 1 37.415 37.414z" fill="#ffbe40"/><path d="m143.439 163.573a17.816 17.816 0 0 1 -5.033 1.782v5.692h-6v-5.555a17.465 17.465 0 0 1 -4.345-1.179 12.98 12.98 0 0 1 -7.693-8.162l5.77-1.65a6.954 6.954 0 0 0 4.257 4.285 12.112 12.112 0 0 0 10.207-.5 7.31 7.31 0 0 0 3.852-7.572c-.707-3.923-4.749-6.67-11.09-7.538-5.76-.788-9.991-3.931-11.609-8.624a12.1 12.1 0 0 1 2.748-12.269 15.054 15.054 0 0 1 7.9-4.135v-5.693h6v5.606a16.138 16.138 0 0 1 9.924 5.821l-4.658 3.782a10.22 10.22 0 0 0 -7.563-3.837 9.8 9.8 0 0 0 -7.3 2.635 6.048 6.048 0 0 0 -1.38 6.135c.866 2.511 3.263 4.157 6.751 4.635 8.95 1.225 15 5.867 16.18 12.417a13.2 13.2 0 0 1 -6.918 13.924z" fill="#ff5959"/><path d="m356.379 152.707h-4.831v-6h3.277a31.016 31.016 0 0 1 0-9.617h-3.277v-6h4.831c3.783-10.15 12.723-17.3 23.125-17.3 7.678 0 14.822 3.863 19.6 10.6l-4.892 3.472c-3.642-5.129-9-8.071-14.711-8.071-7.124 0-13.344 4.564-16.613 11.3h20.812v6h-22.791a25.417 25.417 0 0 0 0 9.617h22.791v6h-20.809c3.269 6.738 9.489 11.3 16.613 11.3a17.718 17.718 0 0 0 13.531-6.555l4.563 3.895a23.622 23.622 0 0 1 -18.094 8.66c-10.404.001-19.342-7.151-23.125-17.301z" fill="#ff5959"/><path d="m58.783 309.231h77.144v6h-77.144zm0 23.058h77.144v-6h-77.144zm0 17.058h77.144v-6h-77.144z" fill="#68544f"/><path d="m453.538 309.231v6h-77.138v-6zm-77.138 23.058h77.142v-6h-77.142zm0 17.058h77.142v-6h-77.142z" fill="#53433f"/><path d="m328.547 133.785-146.793-.007v-6l132.307.006-9.207-9.207 4.242-4.243zm-122.858 24.252-9.451-9.451 132.309-.006v-6l-146.793.007 19.692 19.692z" fill="#52cc7b"/><path d="m235.333 263.038-4.047 24.019-72.949-102.284 4.889-3.479 64.55 90.48 1.641-9.734zm-90.958-48.086 5.916 1 1.689-10.02 64.846 91.12 4.889-3.478-73.245-102.925z" fill="#52cc7b"/><path d="m357.1 184.485-73.074 102.572-4.046-24.019 5.916-1 1.64 9.734 64.672-90.768zm-63.864 109 4.889 3.478 65.068-91.323 1.689 10.021 5.916-1-4.1-24.3z" fill="#3d997a"/><path d="m270.81 350.911-2.035 2.034a8.857 8.857 0 0 1 -6.263 2.594h-20.146v-5.392l.008-.006c.84-.632 1.722-1.375 2.42-2.023a5.5 5.5 0 0 0 1.686-3.173c.607-3.8.085-9.234-.547-14.729h-2.3v-6h1.606c-.825-7.506-1.245-14.407.858-19.279a9.454 9.454 0 0 1 7.063-5.893c4.046-.717 8.8 1.2 12.429 5.016l-4.348 4.133c-2.186-2.3-5.006-3.6-7.028-3.242a3.522 3.522 0 0 0 -2.607 2.364c-1.577 3.65-1.085 10.165-.331 16.9h7.865v6h-7.169c.817 7.181 1.35 13.834-.281 18.617a4.6 4.6 0 0 1 -.315.706h11.136a2.856 2.856 0 0 0 2.02-.837l2.035-2.035z" fill="#ff5959"/><path d="m256 298.961a15.906 15.906 0 0 1 9.59 5.1l-4.348 4.133a10.684 10.684 0 0 0 -5.242-3.173zm10.567 47.706-2.035 2.035a2.856 2.856 0 0 1 -2.02.837h-6.512v6h6.512a8.857 8.857 0 0 0 6.263-2.594l2.035-2.034zm-7.426-22.451h-3.141v6h3.141z" fill="#e63a57"/><path d="m138.406 112.456v5.606a16.135 16.135 0 0 1 9.924 5.821l-4.658 3.782a10.219 10.219 0 0 0 -7.563-3.837c-.215-.009-.429 0-.644 0v-11.372zm11.953 37.194c-1.123-6.23-6.656-10.727-14.894-12.206v6.111c5.126 1.144 8.364 3.691 8.989 7.16a7.31 7.31 0 0 1 -3.852 7.572 11.994 11.994 0 0 1 -5.137 1.379v11.381h2.941v-5.692a17.816 17.816 0 0 0 5.033-1.782 13.2 13.2 0 0 0 6.92-13.923z" fill="#e63a57"/><path d="m378.249 113.843c.417-.024.833-.054 1.255-.054 7.678 0 14.822 3.863 19.6 10.6l-4.892 3.472c-3.642-5.129-9-8.071-14.711-8.071-.422 0-.84.019-1.255.05zm5.451 32.864h-5.451v6h5.451zm-4.2 17.3c-.422 0-.84-.019-1.255-.05v6c.417.023.833.054 1.255.054a23.622 23.622 0 0 0 18.094-8.66l-4.563-3.895a17.718 17.718 0 0 1 -13.531 6.553zm4.2-32.919h-5.451v6h5.451z" fill="#e63a57"/><path d="m256 142.583h72.547v6h-72.547zm0-14.8v6h72.547l-19.447-19.449-4.242 4.243 9.207 9.207z" fill="#3d997a"/></g></svg>