<svg clip-rule="evenodd" fill-rule="evenodd" height="2.667in" image-rendering="optimizeQuality" shape-rendering="geometricPrecision" text-rendering="geometricPrecision" viewBox="0 0 2.66666 2.66666" width="2.667in" xmlns="http://www.w3.org/2000/svg" xmlns:xlink="http://www.w3.org/1999/xlink"><linearGradient id="id0" gradientUnits="userSpaceOnUse" x1="-.088" x2="2.755" y1="1.721" y2=".946"><stop offset="0" stop-color="#0cf"/><stop offset="1" stop-color="#00f"/></linearGradient><g id="Layer_x0020_1"><circle cx="1.333" cy="1.333" fill="url(#id0)" r="1.333"/><g fill="#fefefe"><path d="m1.07961 1.76807c-.0116969-.0813307-.0465394-.118606-.0830276-.157634-.048752-.0521417-.104008-.111232-.104008-.271433 0-.240453.195622-.436071.436075-.436071.240449 0 .436071.195618.436071.436071 0 .160201-.0552559.219295-.104004.271433-.0364921.0390276-.0713346.0762992-.0830315.157634-.00538189-.00118504-.0109764-.00181102-.0167126-.00181102l-.464646-.00000394c-.00573622 0-.0113307.00063386-.0167165.00181496zm-.065378-.407406c-.0119646 0-.0216654-.00969685-.0216654-.0216654 0-.185315.150768-.336075.336087-.336075.0119685 0 .0216693.00969685.0216693.0216654 0 .0119646-.00970079.0216654-.0216693.0216654-.161421 0-.292756.131327-.292756.292744 0 .0119685-.00970079.0216654-.0216654.0216654z"/><path d="m1.56097 1.96625h-.464646c-.0189449 0-.0343583-.0154134-.0343583-.0343661v-.0879331c0-.0189488.0154134-.0343622.0343583-.0343622l.464646.00000394c.0189488 0 .0343661.0154094.0343661.0343583v.0879331c-.00000394.0189528-.0154213.0343661-.0343661.0343661z"/><path d="m1.51751 2.06825h-.377717c-.0189488 0-.0343622-.0154094-.0343622-.0343583v-.0356378h.446445v.0356378c0 .0189488-.0154173.0343583-.0343661.0343583z"/><path d="m1.32157 2.18344c-.0565787 0-.104748-.0366929-.121957-.0875354h.243906c-.0172047.0508425-.065374.0875354-.121949.0875354z"/><path d="m1.33835.768626c-.0119646 0-.0216654-.00969685-.0216654-.0216654v-.245252c0-.0119646.00970079-.0216654.0216654-.0216654.0119685 0 .0216654.00970079.0216654.0216654v.245252c0 .0119685-.00969685.0216654-.0216654.0216654z"/><path d="m1.67362.863854c-.0036811 0-.00740157-.00093701-.010811-.00290945-.0103661-.00598031-.0139173-.0192323-.00792913-.0295945l.122622-.212394c.00598425-.0103661.0192402-.0139055.0295945-.00792913.0103622.00598425.0139173.0192362.00792913.0295945l-.122622.212394c-.00401575.00694882-.0112953.0108386-.0187835.0108386z"/><path d="m1.91643 1.11397c-.00748819 0-.0147717-.00388583-.0187835-.0108386-.00598031-.0103622-.00242913-.0236102.00792913-.0295945l.212398-.122622c.0103622-.00598425.0236181-.00243307.0295945.00792913.00598425.0103622.00243307.0236102-.00792913.0295945l-.212398.122622c-.00340945.0019685-.00713386.00290945-.010811.00290945z"/><path d="m1.00038.853819c-.00748819 0-.0147677-.00388583-.0187835-.0108346l-.122622-.212398c-.00598425-.0103622-.00242913-.0236102.00792913-.0295945.0103583-.00598031.0236102-.00242913.0295945.00792913l.122622.212398c.00598425.0103622.00243307.0236102-.00792913.0295945-.00340945.0019685-.00713386.00290551-.010811.00290551z"/><path d="m.750228 1.09659c-.00367323 0-.00740157-.00093701-.010811-.00290945l-.212394-.122626c-.0103661-.00598031-.0139134-.0192323-.00792913-.0295945.00598425-.0103661.0192402-.0139055.0295945-.00792913l.212394.122626c.0103622.00598425.0139134.0192362.00792913.0295945-.00401575.00694882-.0112953.0108386-.0187835.0108386z"/></g></g></svg>